<?xml version="1.0" encoding="utf-8" ?>
<svg baseProfile="full" height="14cm" version="1.1" width="14cm" xmlns="http://www.w3.org/2000/svg" xmlns:ev="http://www.w3.org/2001/xml-events" xmlns:xlink="http://www.w3.org/1999/xlink"><defs><g id="marker"><rect fill="white" height="14cm" stroke="black" width="14cm" x="0cm" y="0cm" /><rect fill="none" height="9.2cm" stroke="black" width="9.2cm" x="2.4cm" y="2.4cm" /><circle cx="1.2cm" cy="1.2cm" r="1cm" /><circle cx="1.2cm" cy="12.8cm" r="1cm" /><circle cx="12.8cm" cy="1.2cm" r="1cm" /><circle cx="12.8cm" cy="12.8cm" r="1cm" /><circle cx="5.84cm" cy="1.2cm" r="1cm" /><circle cx="1.2cm" cy="5.84cm" r="1cm" /><circle cx="8.16cm" cy="1.2cm" r="1cm" /><circle cx="1.2cm" cy="8.16cm" r="1cm" /><circle cx="4.68cm" cy="12.8cm" r="1cm" /><circle cx="12.8cm" cy="4.68cm" r="1cm" /><circle cx="9.32cm" cy="12.8cm" r="1cm" /><circle cx="12.8cm" cy="9.32cm" r="1cm" /><circle cx="7.0cm" cy="7.0cm" fill="red" r="0.05cm" /><line stroke="rgb(10%,10%,16%)" x1="7.0cm" x2="9.0cm" y1="7.0cm" y2="7.0cm" /><line stroke="rgb(10%,10%,16%)" x1="7.0cm" x2="7.0cm" y1="7.0cm" y2="5.0cm" /><text fill="black" x="9.1cm" y="7.0cm">x</text><text fill="black" x="7.0cm" y="4.8cm">y</text></g></defs><rect fill="white" height="14" stroke="none" width="14" x="0" y="0" /><use x="0cm" xlink:href="#marker" y="0cm" /></svg>