<?xml version="1.0" encoding="utf-8" ?>
<svg baseProfile="full" height="100%" version="1.1" width="100%" xmlns="http://www.w3.org/2000/svg" xmlns:ev="http://www.w3.org/2001/xml-events" xmlns:xlink="http://www.w3.org/1999/xlink"><defs><g id="marker"><rect fill="white" height="17.4cm" stroke="black" width="17.4cm" x="0cm" y="0cm" /><rect fill="none" height="10.6cm" stroke="black" width="10.6cm" x="3.4cm" y="3.4cm" /><circle cx="1.7cm" cy="1.7cm" r="1.5cm" /><circle cx="1.7cm" cy="15.7cm" r="1.5cm" /><circle cx="15.7cm" cy="1.7cm" r="1.5cm" /><circle cx="15.7cm" cy="15.7cm" r="1.5cm" /><circle cx="7.3cm" cy="1.7cm" r="1.5cm" /><circle cx="1.7cm" cy="7.3cm" r="1.5cm" /><circle cx="10.1cm" cy="1.7cm" r="1.5cm" /><circle cx="1.7cm" cy="10.1cm" r="1.5cm" /><circle cx="5.9cm" cy="15.7cm" r="1.5cm" /><circle cx="15.7cm" cy="5.9cm" r="1.5cm" /><circle cx="11.5cm" cy="15.7cm" r="1.5cm" /><circle cx="15.7cm" cy="11.5cm" r="1.5cm" /><circle cx="8.7cm" cy="8.7cm" fill="red" r="0.05cm" /><line stroke="rgb(10%,10%,16%)" x1="8.7cm" x2="10.7cm" y1="8.7cm" y2="8.7cm" /><line stroke="rgb(10%,10%,16%)" x1="8.7cm" x2="8.7cm" y1="8.7cm" y2="6.7cm" /><text fill="black" x="10.8cm" y="8.7cm">x</text><text fill="black" x="8.7cm" y="6.5cm">y</text></g></defs><rect fill="white" height="100%" stroke="none" width="100%" x="0" y="0" /><use x="0cm" xlink:href="#marker" y="0cm" /></svg>